<svg width="100" height="140" viewBox="0 0 100 140" fill="none"
    xmlns="http://www.w3.org/2000/svg">
    <path d="M96.2495 52C95.6685 61.121 93.1805 70.0185 88.946 78.1175C84.261 87.77 78.835 97.045 72.7165 105.859C66.802 114.544 60.8855 122.251 56.446 127.788C54.227 130.556 52.3785 132.781 51.0855 134.312C50.6635 134.812 50.3005 135.238 50.0035 135.584C49.7034 135.234 49.341 134.802 48.917 134.295C47.6235 132.751 45.775 130.51 43.5555 127.722C39.116 122.145 33.1984 114.39 27.2839 105.672C21.1759 96.8415 15.7497 87.5585 11.0524 77.904C6.8345 69.8745 4.34668 61.05 3.74943 52C3.50256 39.4737 8.2324 27.3606 16.9021 18.316C25.5718 9.2714 37.474 4.03332 49.9995 3.75C62.525 4.03332 74.427 9.2714 83.097 18.316C91.7665 27.3606 96.4965 39.4737 96.2495 52Z" fill="#4264FB" stroke="#314CCD" stroke-width="0.5"/>
</svg>
