<svg width="500" height="700" viewBox="0 0 500 700" fill="none"
    xmlns="http://www.w3.org/2000/svg">
    <path d="M481.248 260C478.343 305.605 465.902 350.092 444.73 390.587C421.305 438.85 394.175 485.225 363.582 529.295C334.01 572.718 304.427 611.255 282.23 638.942C271.135 652.782 261.893 663.903 255.428 671.558C253.318 674.058 251.502 676.188 250.017 677.92C248.517 676.17 246.705 674.01 244.585 671.475C238.117 663.755 228.875 652.548 217.777 638.608C195.58 610.723 165.992 571.948 136.42 528.358C105.88 484.208 78.7487 437.793 55.2622 389.52C34.1725 349.373 21.7334 305.25 18.7472 260C17.5128 197.369 41.162 136.803 84.5105 91.58C127.859 46.357 187.37 20.1666 249.997 18.75C312.625 20.1666 372.135 46.357 415.485 91.58C458.832 136.803 482.483 197.369 481.248 260Z" fill="#4264FB" stroke="#314CCD" stroke-width="0.5"/>
</svg>
