<svg width="36" height="36" viewBox="0 0 36 36" fill="none" xmlns="http://www.w3.org/2000/svg">
<path d="M35.75 18C35.75 21.5105 34.7085 24.9425 32.7585 27.8615C30.808 30.7805 28.036 33.0555 24.7925 34.399C21.549 35.7425 17.9801 36.094 14.5369 35.409C11.0938 34.724 7.931 33.0335 5.4486 30.551C2.96625 28.069 1.2757 24.906 0.590851 21.463C-0.0940486 18.02 0.257452 14.4508 1.6009 11.2075C2.94435 7.96406 5.2194 5.19186 8.1384 3.24151C11.0574 1.29111 14.4892 0.250063 17.9998 0.250063C20.331 0.249013 22.6395 0.707414 24.7935 1.59906C26.9475 2.49071 28.905 3.79816 30.5535 5.44656C32.2015 7.09501 33.509 9.05221 34.401 11.2062C35.2925 13.3602 35.751 15.6688 35.75 18Z" fill="white" stroke="#314CCD" stroke-width="0.5"/>
</svg>
